<svg width="280" height="280" viewBox="0 0 280 280" fill="none" xmlns="http://www.w3.org/2000/svg">
<path d="M139.337 267.479C191.626 267.479 223 229.569 223 184.469C223 152.896 216.365 116.623 188.791 102.838C178.309 97.5979 170.781 125.548 139.876 125.548C108.972 125.548 101.444 97.5979 90.9625 102.838C64.3772 116.93 56 153.417 56 184.469C56 229.569 87.3738 267.479 139.337 267.479ZM139.876 230.55C114.058 230.55 99.1389 209.307 99.1389 184.469C99.1389 159.959 114.058 139.524 139.876 139.524C165.694 139.524 179.861 159.959 179.861 184.469C179.861 209.307 165.694 230.55 139.876 230.55Z" fill="#6F00FF"/>
<path fill-rule="evenodd" clip-rule="evenodd" d="M80 63.6423C80 50.3875 90.7452 39.6423 104 39.6423H175.323C188.578 39.6423 199.323 50.3875 199.323 63.6423C199.323 76.8972 188.578 87.6423 175.323 87.6423H104C90.7452 87.6423 80 76.8972 80 63.6423ZM116.062 63.5792C116.062 69.9725 111.614 75.3465 104.202 75.3465C96.8356 75.3465 92.3881 69.9725 92.3881 63.5792C92.3881 57.2322 96.8356 51.8582 104.202 51.8582C111.614 51.8582 116.062 57.2322 116.062 63.5792ZM175.505 75.3465C182.917 75.3465 187.365 69.9725 187.365 63.5792C187.365 57.2322 182.917 51.8582 175.505 51.8582C168.138 51.8582 163.691 57.2322 163.691 63.5792C163.691 69.9725 168.138 75.3465 175.505 75.3465Z" fill="#6F00FF"/>
<rect x="136.382" y="25.9753" width="6.98772" height="20.9632" fill="#6F00FF"/>
<rect x="122.407" y="12" width="34.9386" height="13.9754" fill="#6F00FF"/>
</svg>
