<svg width="15" height="15" viewBox="0 0 15 15" fill="none" xmlns="http://www.w3.org/2000/svg">
<path d="M8.53526 4.19997C8.4131 4.32459 8.34468 4.49213 8.34468 4.66663C8.34468 4.84113 8.4131 5.00868 8.53526 5.1333L9.60192 6.19997C9.72654 6.32212 9.89409 6.39054 10.0686 6.39054C10.2431 6.39054 10.4106 6.32212 10.5353 6.19997L13.0486 3.68663C13.3838 4.42743 13.4853 5.25279 13.3396 6.05273C13.1938 6.85267 12.8077 7.5892 12.2328 8.16415C11.6578 8.73911 10.9213 9.12519 10.1214 9.27094C9.32141 9.41669 8.49605 9.31519 7.75526 8.97997L3.14859 13.5866C2.88337 13.8518 2.52366 14.0008 2.14859 14.0008C1.77352 14.0008 1.41381 13.8518 1.14859 13.5866C0.883372 13.3214 0.734375 12.9617 0.734375 12.5866C0.734375 12.2116 0.883372 11.8518 1.14859 11.5866L5.75526 6.97997C5.42003 6.23917 5.31853 5.41381 5.46428 4.61387C5.61003 3.81393 5.99611 3.0774 6.57107 2.50245C7.14603 1.92749 7.88255 1.54141 8.68249 1.39566C9.48243 1.24991 10.3078 1.35141 11.0486 1.68663L8.54192 4.1933L8.53526 4.19997Z" stroke="#898988" stroke-width="1.33333" stroke-linecap="round" stroke-linejoin="round"/>
</svg>
