<svg width="15" height="15" viewBox="0 0 15 15" fill="none" xmlns="http://www.w3.org/2000/svg">
<path d="M9.32222 4.19997C9.20007 4.32459 9.13165 4.49213 9.13165 4.66663C9.13165 4.84113 9.20007 5.00868 9.32222 5.1333L10.3889 6.19997C10.5135 6.32212 10.6811 6.39054 10.8556 6.39054C11.0301 6.39054 11.1976 6.32212 11.3222 6.19997L13.8356 3.68663C14.1708 4.42743 14.2723 5.25279 14.1265 6.05273C13.9808 6.85267 13.5947 7.5892 13.0197 8.16415C12.4448 8.73911 11.7083 9.12519 10.9083 9.27094C10.1084 9.41669 9.28301 9.31519 8.54222 8.97997L3.93555 13.5866C3.67034 13.8518 3.31063 14.0008 2.93555 14.0008C2.56048 14.0008 2.20077 13.8518 1.93555 13.5866C1.67034 13.3214 1.52134 12.9617 1.52134 12.5866C1.52134 12.2116 1.67034 11.8518 1.93555 11.5866L6.54222 6.97997C6.207 6.23917 6.1055 5.41381 6.25125 4.61387C6.397 3.81393 6.78308 3.0774 7.35803 2.50245C7.93299 1.92749 8.66952 1.54141 9.46946 1.39566C10.2694 1.24991 11.0948 1.35141 11.8356 1.68663L9.32889 4.1933L9.32222 4.19997Z" stroke="#5D23BB" stroke-width="1.33333" stroke-linecap="round" stroke-linejoin="round"/>
</svg>
