<svg width="128" height="30" viewBox="0 0 128 30" fill="none" xmlns="http://www.w3.org/2000/svg">
<path d="M0.610999 20.4115L2.9939 17.1121C4.42974 18.6091 6.65989 19.8616 9.47048 19.8616C11.8534 19.8616 13.0143 18.7313 13.0143 17.5704C13.0143 16.0429 11.2424 15.5235 8.89004 14.9736C5.56009 14.2099 1.2831 13.2934 1.2831 8.74143C1.2831 5.35038 4.21589 2.60089 9.01224 2.60089C12.2505 2.60089 14.9389 3.57849 16.9552 5.44203L14.5418 8.61923C12.8921 7.09173 10.6925 6.38908 8.70674 6.38908C6.75154 6.38908 5.71284 7.24448 5.71284 8.46648C5.71284 9.84123 7.42364 10.2689 9.77598 10.8188C13.1365 11.5826 17.4135 12.5907 17.4135 17.1121C17.4135 20.8392 14.7556 23.6498 9.25663 23.6498C5.34624 23.6498 2.53565 22.3362 0.610999 20.4115ZM19.5145 29.0571L20.0949 25.5744C20.431 25.7272 20.9503 25.8188 21.3169 25.8188C22.3251 25.8188 22.9972 25.5439 23.3638 24.7496L23.9137 23.4971L17.9259 8.52758H22.0807L25.93 18.7924L29.7793 8.52758H33.9646L27.0298 25.6966C25.93 28.4767 23.9748 29.2099 21.4391 29.271C20.9809 29.271 20.0033 29.1793 19.5145 29.0571ZM49.5358 23.2832H45.6559V14.3626C45.6559 12.3158 44.5867 11.6131 42.937 11.6131C41.4095 11.6131 40.2181 12.4685 39.5765 13.3545V23.2832H35.6967V8.52758H39.5765V10.4522C40.5235 9.32188 42.326 8.16098 44.7394 8.16098C47.9777 8.16098 49.5358 9.99397 49.5358 12.8657V23.2832ZM52.4411 15.8901C52.4411 11.3687 55.71 8.16098 60.2619 8.16098C63.2864 8.16098 65.1194 9.47463 66.097 10.8494L63.5613 13.2017C62.8587 12.1936 61.7894 11.6131 60.4452 11.6131C58.0929 11.6131 56.4432 13.3239 56.4432 15.8901C56.4432 18.4563 58.0929 20.1977 60.4452 20.1977C61.7894 20.1977 62.8587 19.5867 63.5613 18.6091L66.097 20.9614C65.1194 22.3362 63.2864 23.6498 60.2619 23.6498C55.71 23.6498 52.4411 20.4421 52.4411 15.8901ZM76.6374 23.2832H72.4521L66.5254 8.52758H70.6802L74.5295 18.7924L78.3788 8.52758H82.5641L76.6374 23.2832ZM106.788 23.6498C104.069 23.6498 102.602 22.2445 102.602 19.6172V11.9186H100.158V8.52758H102.602V4.49498H106.513V8.52758H109.507V11.9186H106.513V18.5785C106.513 19.495 107.001 20.1977 107.857 20.1977C108.437 20.1977 108.987 19.9838 109.201 19.77L110.026 22.7028C109.445 23.2221 108.407 23.6498 106.788 23.6498ZM111.214 15.8901C111.214 11.6131 114.361 8.16098 118.851 8.16098C123.251 8.16098 126.245 11.4604 126.245 16.2873V17.1427H115.277C115.522 19.0062 117.018 20.5643 119.524 20.5643C120.898 20.5643 122.517 20.0144 123.465 19.0979L125.175 21.603C123.678 22.9777 121.387 23.6498 119.096 23.6498C114.605 23.6498 111.214 20.6254 111.214 15.8901ZM118.851 11.2465C116.438 11.2465 115.399 13.049 115.216 14.5154H122.487C122.395 13.1101 121.418 11.2465 118.851 11.2465Z" fill="black"/>
<rect x="90.3379" y="1.31055" width="0.649956" height="1.96941" fill="black"/>
<path d="M90.6109 23.9996C95.4745 23.9996 98.3927 20.4381 98.3927 16.2011C98.3927 13.2349 97.7755 9.82727 95.2108 8.53218C94.2358 8.03989 93.5357 10.6657 90.6611 10.6657C87.7865 10.6657 87.0863 8.0399 86.1114 8.53218C83.6386 9.8561 82.8594 13.2838 82.8594 16.2011C82.8594 20.4381 85.7776 23.9996 90.6109 23.9996ZM90.6611 20.5302C88.2596 20.5302 86.8719 18.5345 86.8719 16.2011C86.8719 13.8984 88.2596 11.9786 90.6611 11.9786C93.0625 11.9786 94.3802 13.8984 94.3802 16.2011C94.3802 18.5345 93.0625 20.5302 90.6611 20.5302Z" fill="black"/>
<path fill-rule="evenodd" clip-rule="evenodd" d="M87.6023 2.44727C86.2514 2.44727 85.1562 3.54241 85.1562 4.89334C85.1562 6.24427 86.2514 7.33942 87.6023 7.33942H93.6083C94.9593 7.33942 96.0544 6.24427 96.0544 4.89334C96.0544 3.54241 94.9593 2.44727 93.6083 2.44727H87.6023ZM95.0809 4.84968C95.0809 5.4503 94.6672 5.95518 93.9777 5.95518C93.2926 5.95518 92.8789 5.4503 92.8789 4.84968C92.8789 4.25341 93.2926 3.74854 93.9777 3.74854C94.6672 3.74854 95.0809 4.25341 95.0809 4.84968ZM88.4452 4.85163C88.4452 5.45226 88.0315 5.95713 87.342 5.95713C86.6568 5.95713 86.2432 5.45226 86.2432 4.85163C86.2432 4.25536 86.6568 3.75049 87.342 3.75049C88.0315 3.75049 88.4452 4.25536 88.4452 4.85163Z" fill="black"/>
<rect x="90.3359" y="1.31152" width="0.649956" height="1.96941" fill="black"/>
<rect x="89.0352" width="3.24978" height="1.31294" fill="black"/>
</svg>
