<svg width="36" height="28" viewBox="0 0 36 28" fill="none" xmlns="http://www.w3.org/2000/svg">
<path fill-rule="evenodd" clip-rule="evenodd" d="M20.6947 25.449L26.7855 22.053C28.6299 21.013 29.8776 19.039 29.8832 16.7721C29.8901 13.4249 27.0838 10.6869 23.7366 10.6869H18.4251C17.9239 10.6869 17.5176 10.2806 17.5176 9.77934V8.83559C17.5176 8.33091 17.1077 7.92243 16.6044 7.92243C16.4595 7.92243 16.3214 7.95731 16.2002 8.01719H16.1987L9.62282 11.2557C7.57353 12.2121 6.14596 14.2795 6.11809 16.683C6.07626 20.0637 8.88673 22.8295 12.2674 22.8295H18.4321C18.9341 22.8295 19.341 23.2364 19.341 23.7385V24.646L19.3452 24.6488C19.3466 25.1521 19.7551 25.5592 20.2584 25.5592C20.4159 25.5592 20.5651 25.5201 20.6947 25.449ZM32.3437 16.0486C32.8958 16.3776 33.4576 16.8126 33.9845 17.3396C35.7885 19.1435 36.5162 21.3406 35.6101 22.2468C34.8671 22.9884 33.2569 22.633 31.708 21.4884C30.3098 25.1618 26.7562 27.7744 22.5921 27.7744H13.4078C9.61445 27.7744 6.32581 25.608 4.71422 22.4434C4.9526 22.1841 5.25651 21.809 5.50884 21.3601C5.76261 20.9126 5.96474 20.3898 5.99676 19.835C5.78489 20.1013 5.5521 20.3661 5.29697 20.6213C3.493 22.4252 1.29594 23.153 0.389735 22.2468C-0.516408 21.3406 0.211312 19.1435 2.01528 17.3396C2.54224 16.8126 3.10407 16.3776 3.6561 16.0486V15.4589C3.6561 10.0732 8.0221 5.70724 13.4078 5.70724H15.2787C15.2787 5.70305 15.2783 5.69886 15.278 5.69467C15.2776 5.69048 15.2773 5.68629 15.2773 5.6821C15.2773 4.89306 15.9172 4.25179 16.7076 4.25179H17.3586V2.83538C16.8777 2.62487 16.5403 2.14533 16.5403 1.58629C16.5403 0.813509 17.1846 0.191166 17.9667 0.227098C18.6767 0.25968 19.2533 0.856951 19.2628 1.56761C19.2704 2.13459 18.9324 2.62251 18.4446 2.83538V4.25179H19.2923C19.6881 4.25179 20.0451 4.41209 20.3043 4.67138C20.5623 4.92931 20.7226 5.28758 20.7226 5.6821C20.7226 5.68629 20.7222 5.69048 20.7219 5.69467C20.7215 5.69886 20.7212 5.70305 20.7212 5.70724H22.5921C27.9777 5.70724 32.3437 10.0732 32.3437 15.4589V16.0486ZM24.5399 15.315C24.5748 15.4669 24.5929 15.6258 24.5929 15.7889C24.5929 17.0277 23.5504 18.0245 22.2935 17.947C21.2161 17.8805 20.3392 17.0035 20.2726 15.9262C20.1951 14.6692 21.1919 13.6267 22.4307 13.6267C22.6677 13.6267 22.8949 13.6643 23.1082 13.7355C22.9749 13.9395 22.9077 14.1901 22.9362 14.4575C22.9904 14.9647 23.4008 15.3762 23.9078 15.4321C24.1362 15.4573 24.3537 15.4123 24.5399 15.315ZM13.4318 17.947C14.6888 18.0245 15.7313 17.0277 15.7313 15.7889C15.7313 15.6258 15.7132 15.4669 15.6783 15.315C15.4923 15.4122 15.2749 15.4573 15.0466 15.4321C14.5395 15.3764 14.1289 14.965 14.0746 14.4578C14.046 14.1902 14.1132 13.9395 14.2465 13.7354C14.0332 13.6643 13.806 13.6267 13.569 13.6267C12.3303 13.6267 11.3334 14.6692 11.4111 15.9261C11.4775 17.0035 12.3544 17.8804 13.4318 17.947ZM18.0009 20.4395C18.9726 20.4395 19.8285 20.0952 20.3318 19.5724C20.6841 19.2064 20.4918 18.6248 20.0426 18.5044C19.9565 18.4813 19.8656 18.483 19.7776 18.498L19.1538 18.6048C18.3522 18.7415 17.5325 18.7373 16.7323 18.5909L16.1314 18.4822C15.564 18.4822 15.2755 19.1625 15.67 19.5724C16.1732 20.0952 17.0292 20.4395 18.0009 20.4395Z" fill="#6200EE"/>
</svg>
